<svg xmlns="http://www.w3.org/2000/svg" viewBox="0 0 320 160" role="img">
<defs><radialGradient id="sh" cx="50%" cy="50%" r="50%"><stop offset="0" stop-color="#0d1318" stop-opacity=".20"/><stop offset="1" stop-color="#0d1318" stop-opacity="0"/></radialGradient></defs>
<ellipse cx="160.0" cy="140.4" rx="138.0" ry="5.5" fill="url(#sh)"/>
<polygon points="234.18,108.87 310.00,26.45 310.00,55.02 234.18,137.44" fill="#c2a655" stroke="#8d7536" stroke-width=".6" stroke-linejoin="round"/><line x1="267.2" y1="84.8" x2="274.9" y2="76.5" stroke="#8d7536" stroke-width=".7" stroke-opacity=".8"/><line x1="295.7" y1="62.0" x2="302.8" y2="54.3" stroke="#8d7536" stroke-width=".7" stroke-opacity=".8"/><line x1="291.3" y1="68.9" x2="295.9" y2="64.5" stroke="#8d7536" stroke-width=".7" stroke-opacity=".8"/><line x1="280.1" y1="70.1" x2="285.1" y2="64.6" stroke="#8d7536" stroke-width=".7" stroke-opacity=".8"/><line x1="278.7" y1="81.1" x2="281.9" y2="77.7" stroke="#9d8338" stroke-width=".7" stroke-opacity=".8"/><line x1="237.7" y1="109.9" x2="243.8" y2="102.9" stroke="#dcc27a" stroke-width=".7" stroke-opacity=".8"/><line x1="266.4" y1="79.5" x2="272.0" y2="73.2" stroke="#dcc27a" stroke-width=".7" stroke-opacity=".8"/><line x1="235.5" y1="129.7" x2="241.9" y2="123.0" stroke="#8d7536" stroke-width=".7" stroke-opacity=".8"/><line x1="305.7" y1="36.9" x2="309.5" y2="33.0" stroke="#9d8338" stroke-width=".7" stroke-opacity=".8"/><line x1="271.5" y1="91.8" x2="277.4" y2="86.0" stroke="#9d8338" stroke-width=".7" stroke-opacity=".8"/><line x1="295.1" y1="58.3" x2="303.0" y2="49.3" stroke="#9d8338" stroke-width=".7" stroke-opacity=".8"/><line x1="250.3" y1="95.1" x2="253.6" y2="91.7" stroke="#8d7536" stroke-width=".7" stroke-opacity=".8"/><line x1="263.3" y1="99.8" x2="269.5" y2="92.6" stroke="#dcc27a" stroke-width=".7" stroke-opacity=".8"/><line x1="259.0" y1="99.2" x2="262.1" y2="95.9" stroke="#9d8338" stroke-width=".7" stroke-opacity=".8"/><line x1="244.7" y1="106.1" x2="247.8" y2="102.7" stroke="#dcc27a" stroke-width=".7" stroke-opacity=".8"/><line x1="247.8" y1="106.0" x2="253.1" y2="100.6" stroke="#8d7536" stroke-width=".7" stroke-opacity=".8"/><line x1="289.6" y1="63.5" x2="294.6" y2="58.3" stroke="#9d8338" stroke-width=".7" stroke-opacity=".8"/><line x1="235.2" y1="112.9" x2="243.2" y2="104.1" stroke="#9d8338" stroke-width=".7" stroke-opacity=".8"/><line x1="250.1" y1="107.1" x2="257.5" y2="98.9" stroke="#9d8338" stroke-width=".7" stroke-opacity=".8"/><line x1="238.2" y1="125.5" x2="243.4" y2="120.4" stroke="#8d7536" stroke-width=".7" stroke-opacity=".8"/><line x1="258.5" y1="100.1" x2="261.9" y2="97.0" stroke="#8d7536" stroke-width=".7" stroke-opacity=".8"/><line x1="280.2" y1="82.6" x2="285.1" y2="77.2" stroke="#9d8338" stroke-width=".7" stroke-opacity=".8"/><line x1="303.1" y1="47.5" x2="309.0" y2="40.6" stroke="#9d8338" stroke-width=".7" stroke-opacity=".8"/><line x1="279.6" y1="76.9" x2="283.8" y2="72.2" stroke="#8d7536" stroke-width=".7" stroke-opacity=".8"/><line x1="248.6" y1="101.1" x2="256.4" y2="93.0" stroke="#dcc27a" stroke-width=".7" stroke-opacity=".8"/><line x1="297.6" y1="50.8" x2="302.8" y2="45.7" stroke="#9d8338" stroke-width=".7" stroke-opacity=".8"/><line x1="271.4" y1="86.9" x2="278.2" y2="79.7" stroke="#dcc27a" stroke-width=".7" stroke-opacity=".8"/><line x1="293.5" y1="55.5" x2="298.0" y2="51.0" stroke="#8d7536" stroke-width=".7" stroke-opacity=".8"/><line x1="304.3" y1="54.0" x2="309.5" y2="48.2" stroke="#8d7536" stroke-width=".7" stroke-opacity=".8"/><line x1="278.7" y1="78.5" x2="286.3" y2="70.6" stroke="#9d8338" stroke-width=".7" stroke-opacity=".8"/><line x1="240.1" y1="117.6" x2="244.4" y2="113.5" stroke="#dcc27a" stroke-width=".7" stroke-opacity=".8"/><line x1="261.3" y1="91.0" x2="265.0" y2="87.2" stroke="#dcc27a" stroke-width=".7" stroke-opacity=".8"/><line x1="304.6" y1="42.1" x2="309.5" y2="36.6" stroke="#9d8338" stroke-width=".7" stroke-opacity=".8"/><line x1="276.9" y1="66.3" x2="282.4" y2="60.6" stroke="#dcc27a" stroke-width=".7" stroke-opacity=".8"/><line x1="303.3" y1="57.4" x2="309.5" y2="50.7" stroke="#8d7536" stroke-width=".7" stroke-opacity=".8"/><line x1="257.2" y1="105.0" x2="260.6" y2="101.4" stroke="#dcc27a" stroke-width=".7" stroke-opacity=".8"/><line x1="287.3" y1="55.5" x2="294.1" y2="47.9" stroke="#dcc27a" stroke-width=".7" stroke-opacity=".8"/><line x1="260.1" y1="89.8" x2="267.7" y2="81.1" stroke="#dcc27a" stroke-width=".7" stroke-opacity=".8"/><line x1="302.0" y1="58.6" x2="307.6" y2="53.2" stroke="#8d7536" stroke-width=".7" stroke-opacity=".8"/><line x1="262.2" y1="89.7" x2="268.4" y2="83.6" stroke="#8d7536" stroke-width=".7" stroke-opacity=".8"/><line x1="243.4" y1="117.4" x2="248.5" y2="112.0" stroke="#8d7536" stroke-width=".7" stroke-opacity=".8"/><line x1="284.3" y1="68.5" x2="289.7" y2="62.6" stroke="#8d7536" stroke-width=".7" stroke-opacity=".8"/><line x1="288.3" y1="73.6" x2="294.4" y2="67.0" stroke="#9d8338" stroke-width=".7" stroke-opacity=".8"/><line x1="302.9" y1="55.8" x2="309.5" y2="48.5" stroke="#dcc27a" stroke-width=".7" stroke-opacity=".8"/><line x1="253.3" y1="112.0" x2="257.8" y2="106.8" stroke="#9d8338" stroke-width=".7" stroke-opacity=".8"/><line x1="271.9" y1="75.5" x2="276.6" y2="69.8" stroke="#dcc27a" stroke-width=".7" stroke-opacity=".8"/><line x1="298.3" y1="56.2" x2="304.7" y2="49.6" stroke="#dcc27a" stroke-width=".7" stroke-opacity=".8"/><line x1="292.1" y1="53.5" x2="296.1" y2="49.5" stroke="#9d8338" stroke-width=".7" stroke-opacity=".8"/><line x1="234.18" y1="108.87" x2="310.00" y2="26.45" stroke="#8e948f" stroke-width="2.2"/><line x1="234.18" y1="137.44" x2="310.00" y2="55.02" stroke="#8e948f" stroke-width="2.2"/>
<polygon points="10.00,108.87 26.48,108.87 35.27,98.98 59.45,98.98 68.24,108.87 101.21,108.87 110.00,98.98 134.18,98.98 142.97,108.87 175.93,108.87 184.73,98.98 208.90,98.98 217.69,108.87 234.18,108.87 234.18,137.44 10.00,137.44" fill="#d9bd6c" stroke="#8d7536" stroke-width=".6" stroke-linejoin="round"/><line x1="140.2" y1="125.9" x2="147.0" y2="125.9" stroke="#b99a45" stroke-width=".7" stroke-opacity=".8"/><line x1="168.0" y1="111.6" x2="176.3" y2="112.2" stroke="#efd88b" stroke-width=".7" stroke-opacity=".8"/><line x1="115.9" y1="112.2" x2="129.6" y2="112.4" stroke="#a8893a" stroke-width=".7" stroke-opacity=".8"/><line x1="120.8" y1="125.9" x2="134.5" y2="125.1" stroke="#efd88b" stroke-width=".7" stroke-opacity=".8"/><line x1="83.0" y1="114.4" x2="91.2" y2="114.2" stroke="#a8893a" stroke-width=".7" stroke-opacity=".8"/><line x1="167.5" y1="120.2" x2="176.0" y2="119.7" stroke="#b99a45" stroke-width=".7" stroke-opacity=".8"/><line x1="152.8" y1="123.9" x2="160.1" y2="123.4" stroke="#efd88b" stroke-width=".7" stroke-opacity=".8"/><line x1="65.0" y1="129.9" x2="70.9" y2="129.6" stroke="#efd88b" stroke-width=".7" stroke-opacity=".8"/><line x1="37.0" y1="121.0" x2="48.8" y2="121.2" stroke="#b99a45" stroke-width=".7" stroke-opacity=".8"/><line x1="162.2" y1="128.6" x2="172.4" y2="129.1" stroke="#b99a45" stroke-width=".7" stroke-opacity=".8"/><line x1="177.6" y1="121.0" x2="183.4" y2="121.5" stroke="#efd88b" stroke-width=".7" stroke-opacity=".8"/><line x1="130.7" y1="111.7" x2="141.2" y2="110.8" stroke="#b99a45" stroke-width=".7" stroke-opacity=".8"/><line x1="98.9" y1="115.2" x2="113.4" y2="115.9" stroke="#a8893a" stroke-width=".7" stroke-opacity=".8"/><line x1="97.7" y1="122.9" x2="105.2" y2="122.2" stroke="#b99a45" stroke-width=".7" stroke-opacity=".8"/><line x1="95.3" y1="120.2" x2="109.5" y2="119.7" stroke="#efd88b" stroke-width=".7" stroke-opacity=".8"/><line x1="114.2" y1="118.4" x2="121.7" y2="118.0" stroke="#a8893a" stroke-width=".7" stroke-opacity=".8"/><line x1="214.4" y1="130.3" x2="222.3" y2="130.5" stroke="#b99a45" stroke-width=".7" stroke-opacity=".8"/><line x1="226.0" y1="120.9" x2="233.1" y2="121.3" stroke="#a8893a" stroke-width=".7" stroke-opacity=".8"/><line x1="199.5" y1="125.2" x2="205.8" y2="125.3" stroke="#a8893a" stroke-width=".7" stroke-opacity=".8"/><line x1="105.0" y1="126.8" x2="119.6" y2="127.3" stroke="#b99a45" stroke-width=".7" stroke-opacity=".8"/><line x1="106.6" y1="132.3" x2="117.4" y2="131.9" stroke="#b99a45" stroke-width=".7" stroke-opacity=".8"/><line x1="115.7" y1="110.5" x2="130.1" y2="110.5" stroke="#a8893a" stroke-width=".7" stroke-opacity=".8"/><line x1="163.3" y1="111.7" x2="173.7" y2="110.9" stroke="#b99a45" stroke-width=".7" stroke-opacity=".8"/><line x1="178.2" y1="123.1" x2="189.2" y2="122.6" stroke="#a8893a" stroke-width=".7" stroke-opacity=".8"/><line x1="152.3" y1="121.3" x2="166.1" y2="121.2" stroke="#efd88b" stroke-width=".7" stroke-opacity=".8"/><line x1="159.4" y1="111.5" x2="173.5" y2="111.3" stroke="#efd88b" stroke-width=".7" stroke-opacity=".8"/><line x1="198.4" y1="111.2" x2="209.1" y2="111.1" stroke="#b99a45" stroke-width=".7" stroke-opacity=".8"/><line x1="102.7" y1="130.5" x2="108.3" y2="130.7" stroke="#a8893a" stroke-width=".7" stroke-opacity=".8"/><line x1="224.2" y1="121.4" x2="233.1" y2="120.9" stroke="#a8893a" stroke-width=".7" stroke-opacity=".8"/><line x1="39.8" y1="130.9" x2="47.0" y2="130.2" stroke="#efd88b" stroke-width=".7" stroke-opacity=".8"/><line x1="103.3" y1="111.5" x2="118.0" y2="111.9" stroke="#efd88b" stroke-width=".7" stroke-opacity=".8"/><line x1="120.6" y1="125.4" x2="135.0" y2="124.6" stroke="#efd88b" stroke-width=".7" stroke-opacity=".8"/><line x1="127.5" y1="130.6" x2="137.2" y2="131.4" stroke="#efd88b" stroke-width=".7" stroke-opacity=".8"/><line x1="41.5" y1="115.5" x2="47.2" y2="116.0" stroke="#b99a45" stroke-width=".7" stroke-opacity=".8"/><line x1="15.9" y1="126.6" x2="28.5" y2="127.1" stroke="#efd88b" stroke-width=".7" stroke-opacity=".8"/><line x1="36.1" y1="116.6" x2="42.8" y2="116.6" stroke="#efd88b" stroke-width=".7" stroke-opacity=".8"/><line x1="169.5" y1="117.2" x2="183.6" y2="118.1" stroke="#a8893a" stroke-width=".7" stroke-opacity=".8"/><line x1="103.2" y1="121.1" x2="110.3" y2="121.6" stroke="#a8893a" stroke-width=".7" stroke-opacity=".8"/><line x1="129.5" y1="128.1" x2="137.1" y2="128.0" stroke="#a8893a" stroke-width=".7" stroke-opacity=".8"/><line x1="199.7" y1="127.8" x2="212.5" y2="127.3" stroke="#b99a45" stroke-width=".7" stroke-opacity=".8"/><line x1="82.0" y1="125.9" x2="96.6" y2="126.4" stroke="#b99a45" stroke-width=".7" stroke-opacity=".8"/><line x1="206.4" y1="130.0" x2="214.3" y2="129.6" stroke="#efd88b" stroke-width=".7" stroke-opacity=".8"/><line x1="97.7" y1="123.2" x2="112.5" y2="123.2" stroke="#a8893a" stroke-width=".7" stroke-opacity=".8"/><line x1="40.7" y1="124.0" x2="53.0" y2="124.8" stroke="#b99a45" stroke-width=".7" stroke-opacity=".8"/><line x1="137.3" y1="125.0" x2="150.9" y2="125.2" stroke="#a8893a" stroke-width=".7" stroke-opacity=".8"/><line x1="123.3" y1="116.0" x2="133.8" y2="115.6" stroke="#b99a45" stroke-width=".7" stroke-opacity=".8"/><line x1="188.0" y1="122.2" x2="193.7" y2="121.7" stroke="#a8893a" stroke-width=".7" stroke-opacity=".8"/><line x1="125.3" y1="120.2" x2="132.3" y2="120.8" stroke="#b99a45" stroke-width=".7" stroke-opacity=".8"/><line x1="50.8" y1="129.5" x2="59.1" y2="129.2" stroke="#a8893a" stroke-width=".7" stroke-opacity=".8"/><line x1="26.8" y1="111.6" x2="36.8" y2="111.1" stroke="#efd88b" stroke-width=".7" stroke-opacity=".8"/><line x1="98.3" y1="123.4" x2="107.3" y2="123.9" stroke="#efd88b" stroke-width=".7" stroke-opacity=".8"/><line x1="16.2" y1="117.3" x2="30.0" y2="117.8" stroke="#efd88b" stroke-width=".7" stroke-opacity=".8"/><line x1="91.5" y1="124.7" x2="106.1" y2="124.5" stroke="#b99a45" stroke-width=".7" stroke-opacity=".8"/><line x1="124.8" y1="132.7" x2="139.1" y2="132.2" stroke="#a8893a" stroke-width=".7" stroke-opacity=".8"/><line x1="203.8" y1="112.6" x2="218.6" y2="112.4" stroke="#b99a45" stroke-width=".7" stroke-opacity=".8"/><line x1="123.0" y1="110.9" x2="136.5" y2="111.3" stroke="#b99a45" stroke-width=".7" stroke-opacity=".8"/><line x1="175.3" y1="115.5" x2="188.8" y2="115.7" stroke="#efd88b" stroke-width=".7" stroke-opacity=".8"/><line x1="204.7" y1="117.4" x2="217.8" y2="116.9" stroke="#efd88b" stroke-width=".7" stroke-opacity=".8"/><line x1="58.3" y1="128.9" x2="71.7" y2="129.2" stroke="#b99a45" stroke-width=".7" stroke-opacity=".8"/><line x1="15.6" y1="125.0" x2="27.4" y2="124.8" stroke="#b99a45" stroke-width=".7" stroke-opacity=".8"/><polyline points="10.00,108.87 26.48,108.87 35.27,98.98 59.45,98.98 68.24,108.87 101.21,108.87 110.00,98.98 134.18,98.98 142.97,108.87 175.93,108.87 184.73,98.98 208.90,98.98 217.69,108.87 234.18,108.87" fill="none" stroke="#9aa09a" stroke-width="2.2" stroke-linejoin="round"/><line x1="10.00" y1="137.44" x2="234.18" y2="137.44" stroke="#9aa09a" stroke-width="2.2"/>
<polygon points="10.00,137.44 234.18,137.44 310.00,55.02" fill="#000" fill-opacity="0.0"/>
<polygon points="10.00,108.87 26.48,108.87 102.31,26.45 85.82,26.45" fill="#f0f2ee" stroke="#b0b4b2" stroke-width="0.55" stroke-linejoin="round"/>
<polygon points="26.48,108.87 35.27,98.98 111.10,16.56 102.31,26.45" fill="#b2b5b1" stroke="#848886" stroke-width="0.55" stroke-linejoin="round"/>
<polygon points="35.27,98.98 59.45,98.98 135.27,16.56 111.10,16.56" fill="#f0f2ee" stroke="#b0b4b2" stroke-width="0.55" stroke-linejoin="round"/>
<polygon points="59.45,98.98 68.24,108.87 144.07,26.45 135.27,16.56" fill="#d6d8d2" stroke="#9ea19e" stroke-width="0.55" stroke-linejoin="round"/>
<polygon points="68.24,108.87 101.21,108.87 177.03,26.45 144.07,26.45" fill="#f0f2ee" stroke="#b0b4b2" stroke-width="0.55" stroke-linejoin="round"/>
<polygon points="101.21,108.87 110.00,98.98 185.82,16.56 177.03,26.45" fill="#b2b5b1" stroke="#848886" stroke-width="0.55" stroke-linejoin="round"/>
<polygon points="110.00,98.98 134.18,98.98 210.00,16.56 185.82,16.56" fill="#f0f2ee" stroke="#b0b4b2" stroke-width="0.55" stroke-linejoin="round"/>
<polygon points="134.18,98.98 142.97,108.87 218.79,26.45 210.00,16.56" fill="#d6d8d2" stroke="#9ea19e" stroke-width="0.55" stroke-linejoin="round"/>
<polygon points="142.97,108.87 175.93,108.87 251.76,26.45 218.79,26.45" fill="#f0f2ee" stroke="#b0b4b2" stroke-width="0.55" stroke-linejoin="round"/>
<polygon points="175.93,108.87 184.73,98.98 260.55,16.56 251.76,26.45" fill="#b2b5b1" stroke="#848886" stroke-width="0.55" stroke-linejoin="round"/>
<polygon points="184.73,98.98 208.90,98.98 284.73,16.56 260.55,16.56" fill="#f0f2ee" stroke="#b0b4b2" stroke-width="0.55" stroke-linejoin="round"/>
<polygon points="208.90,98.98 217.69,108.87 293.52,26.45 284.73,16.56" fill="#d6d8d2" stroke="#9ea19e" stroke-width="0.55" stroke-linejoin="round"/>
<polygon points="217.69,108.87 234.18,108.87 310.00,26.45 293.52,26.45" fill="#f0f2ee" stroke="#b0b4b2" stroke-width="0.55" stroke-linejoin="round"/>
</svg>