<svg xmlns="http://www.w3.org/2000/svg" viewBox="0 0 320 160" role="img">
<defs><radialGradient id="sh" cx="50%" cy="50%" r="50%"><stop offset="0" stop-color="#0d1318" stop-opacity=".20"/><stop offset="1" stop-color="#0d1318" stop-opacity="0"/></radialGradient></defs>
<ellipse cx="160.0" cy="137.2" rx="138.0" ry="5.5" fill="url(#sh)"/>
<polygon points="225.51,131.24 310.00,39.41 310.00,42.35 225.51,134.18" fill="#7a5330" fill-opacity="0.95" stroke="#594029" stroke-width="0.6" stroke-linejoin="round"/>
<polygon points="10.00,131.24 13.37,130.50 16.73,128.38 20.10,125.20 23.47,121.45 26.84,117.70 30.20,114.52 33.57,112.40 36.94,111.65 40.31,112.40 43.67,114.52 47.04,117.70 50.41,121.45 53.78,125.20 57.14,128.38 60.51,130.50 63.88,131.24 67.24,130.50 70.61,128.38 73.98,125.20 77.35,121.45 80.71,117.70 84.08,114.52 87.45,112.40 90.82,111.65 94.18,112.40 97.55,114.52 100.92,117.70 104.29,121.45 107.65,125.20 111.02,128.38 114.39,130.50 117.76,131.24 121.12,130.50 124.49,128.38 127.86,125.20 131.22,121.45 134.59,117.70 137.96,114.52 141.33,112.40 144.69,111.65 148.06,112.40 151.43,114.52 154.80,117.70 158.16,121.45 161.53,125.20 164.90,128.38 168.27,130.50 171.63,131.24 175.00,130.50 178.37,128.38 181.73,125.20 185.10,121.45 188.47,117.70 191.84,114.52 195.20,112.40 198.57,111.65 201.94,112.40 205.31,114.52 208.67,117.70 212.04,121.45 215.41,125.20 218.78,128.38 222.14,130.50 225.51,131.24 225.51,134.18 222.14,133.44 218.78,131.31 215.41,128.14 212.04,124.39 208.67,120.64 205.31,117.46 201.94,115.34 198.57,114.59 195.20,115.34 191.84,117.46 188.47,120.64 185.10,124.39 181.73,128.14 178.37,131.31 175.00,133.44 171.63,134.18 168.27,133.44 164.90,131.31 161.53,128.14 158.16,124.39 154.80,120.64 151.43,117.46 148.06,115.34 144.69,114.59 141.33,115.34 137.96,117.46 134.59,120.64 131.22,124.39 127.86,128.14 124.49,131.31 121.12,133.44 117.76,134.18 114.39,133.44 111.02,131.31 107.65,128.14 104.29,124.39 100.92,120.64 97.55,117.46 94.18,115.34 90.82,114.59 87.45,115.34 84.08,117.46 80.71,120.64 77.35,124.39 73.98,128.14 70.61,131.31 67.24,133.44 63.88,134.18 60.51,133.44 57.14,131.31 53.78,128.14 50.41,124.39 47.04,120.64 43.67,117.46 40.31,115.34 36.94,114.59 33.57,115.34 30.20,117.46 26.84,120.64 23.47,124.39 20.10,128.14 16.73,131.31 13.37,133.44 10.00,134.18" fill="#7a5330" fill-opacity="0.95" stroke="#594029" stroke-width="0.6" stroke-linejoin="round"/>
<polygon points="10.00,131.24 13.37,130.50 97.86,38.66 94.49,39.41" fill="#dabb9a" fill-opacity="0.95" stroke="#dabb9a" stroke-width="0.45" stroke-linejoin="round"/>
<polygon points="13.37,130.50 16.73,128.38 101.22,36.54 97.86,38.66" fill="#dabb9a" fill-opacity="0.95" stroke="#dabb9a" stroke-width="0.45" stroke-linejoin="round"/>
<polygon points="16.73,128.38 20.10,125.20 104.59,33.36 101.22,36.54" fill="#dabb9a" fill-opacity="0.95" stroke="#dabb9a" stroke-width="0.45" stroke-linejoin="round"/>
<polygon points="20.10,125.20 23.47,121.45 107.96,29.61 104.59,33.36" fill="#946c42" fill-opacity="0.95" stroke="#946c42" stroke-width="0.45" stroke-linejoin="round"/>
<polygon points="23.47,121.45 26.84,117.70 111.33,25.86 107.96,29.61" fill="#946c42" fill-opacity="0.95" stroke="#946c42" stroke-width="0.45" stroke-linejoin="round"/>
<polygon points="26.84,117.70 30.20,114.52 114.69,22.69 111.33,25.86" fill="#dabb9a" fill-opacity="0.95" stroke="#dabb9a" stroke-width="0.45" stroke-linejoin="round"/>
<polygon points="30.20,114.52 33.57,112.40 118.06,20.56 114.69,22.69" fill="#dabb9a" fill-opacity="0.95" stroke="#dabb9a" stroke-width="0.45" stroke-linejoin="round"/>
<polygon points="33.57,112.40 36.94,111.65 121.43,19.82 118.06,20.56" fill="#dabb9a" fill-opacity="0.95" stroke="#dabb9a" stroke-width="0.45" stroke-linejoin="round"/>
<polygon points="36.94,111.65 40.31,112.40 124.80,20.56 121.43,19.82" fill="#d4af88" fill-opacity="0.95" stroke="#d4af88" stroke-width="0.45" stroke-linejoin="round"/>
<polygon points="53.78,125.20 57.14,128.38 141.63,36.54 138.27,33.36" fill="#bb874e" fill-opacity="0.95" stroke="#bb874e" stroke-width="0.45" stroke-linejoin="round"/>
<polygon points="50.41,121.45 53.78,125.20 138.27,33.36 134.90,29.61" fill="#b2804b" fill-opacity="0.95" stroke="#b2804b" stroke-width="0.45" stroke-linejoin="round"/>
<polygon points="57.14,128.38 60.51,130.50 145.00,38.66 141.63,36.54" fill="#c79763" fill-opacity="0.95" stroke="#c79763" stroke-width="0.45" stroke-linejoin="round"/>
<polygon points="40.31,112.40 43.67,114.52 128.16,22.69 124.80,20.56" fill="#c79763" fill-opacity="0.95" stroke="#c79763" stroke-width="0.45" stroke-linejoin="round"/>
<polygon points="47.04,117.70 50.41,121.45 134.90,29.61 131.53,25.86" fill="#b2804b" fill-opacity="0.95" stroke="#b2804b" stroke-width="0.45" stroke-linejoin="round"/>
<polygon points="43.67,114.52 47.04,117.70 131.53,25.86 128.16,22.69" fill="#bb874e" fill-opacity="0.95" stroke="#bb874e" stroke-width="0.45" stroke-linejoin="round"/>
<polygon points="60.51,130.50 63.88,131.24 148.37,39.41 145.00,38.66" fill="#d4af88" fill-opacity="0.95" stroke="#d4af88" stroke-width="0.45" stroke-linejoin="round"/>
<polygon points="63.88,131.24 67.24,130.50 151.73,38.66 148.37,39.41" fill="#dabb9a" fill-opacity="0.95" stroke="#dabb9a" stroke-width="0.45" stroke-linejoin="round"/>
<polygon points="67.24,130.50 70.61,128.38 155.10,36.54 151.73,38.66" fill="#dabb9a" fill-opacity="0.95" stroke="#dabb9a" stroke-width="0.45" stroke-linejoin="round"/>
<polygon points="70.61,128.38 73.98,125.20 158.47,33.36 155.10,36.54" fill="#dabb9a" fill-opacity="0.95" stroke="#dabb9a" stroke-width="0.45" stroke-linejoin="round"/>
<polygon points="73.98,125.20 77.35,121.45 161.84,29.61 158.47,33.36" fill="#946c42" fill-opacity="0.95" stroke="#946c42" stroke-width="0.45" stroke-linejoin="round"/>
<polygon points="77.35,121.45 80.71,117.70 165.20,25.86 161.84,29.61" fill="#946c42" fill-opacity="0.95" stroke="#946c42" stroke-width="0.45" stroke-linejoin="round"/>
<polygon points="80.71,117.70 84.08,114.52 168.57,22.69 165.20,25.86" fill="#dabb9a" fill-opacity="0.95" stroke="#dabb9a" stroke-width="0.45" stroke-linejoin="round"/>
<polygon points="84.08,114.52 87.45,112.40 171.94,20.56 168.57,22.69" fill="#dabb9a" fill-opacity="0.95" stroke="#dabb9a" stroke-width="0.45" stroke-linejoin="round"/>
<polygon points="87.45,112.40 90.82,111.65 175.31,19.82 171.94,20.56" fill="#dabb9a" fill-opacity="0.95" stroke="#dabb9a" stroke-width="0.45" stroke-linejoin="round"/>
<polygon points="90.82,111.65 94.18,112.40 178.67,20.56 175.31,19.82" fill="#d4af88" fill-opacity="0.95" stroke="#d4af88" stroke-width="0.45" stroke-linejoin="round"/>
<polygon points="107.65,125.20 111.02,128.38 195.51,36.54 192.14,33.36" fill="#bb874e" fill-opacity="0.95" stroke="#bb874e" stroke-width="0.45" stroke-linejoin="round"/>
<polygon points="104.29,121.45 107.65,125.20 192.14,33.36 188.78,29.61" fill="#b2804b" fill-opacity="0.95" stroke="#b2804b" stroke-width="0.45" stroke-linejoin="round"/>
<polygon points="111.02,128.38 114.39,130.50 198.88,38.66 195.51,36.54" fill="#c79763" fill-opacity="0.95" stroke="#c79763" stroke-width="0.45" stroke-linejoin="round"/>
<polygon points="94.18,112.40 97.55,114.52 182.04,22.69 178.67,20.56" fill="#c79763" fill-opacity="0.95" stroke="#c79763" stroke-width="0.45" stroke-linejoin="round"/>
<polygon points="100.92,117.70 104.29,121.45 188.78,29.61 185.41,25.86" fill="#b2804b" fill-opacity="0.95" stroke="#b2804b" stroke-width="0.45" stroke-linejoin="round"/>
<polygon points="97.55,114.52 100.92,117.70 185.41,25.86 182.04,22.69" fill="#bb874e" fill-opacity="0.95" stroke="#bb874e" stroke-width="0.45" stroke-linejoin="round"/>
<polygon points="114.39,130.50 117.76,131.24 202.24,39.41 198.88,38.66" fill="#d4af88" fill-opacity="0.95" stroke="#d4af88" stroke-width="0.45" stroke-linejoin="round"/>
<polygon points="117.76,131.24 121.12,130.50 205.61,38.66 202.24,39.41" fill="#dabb9a" fill-opacity="0.95" stroke="#dabb9a" stroke-width="0.45" stroke-linejoin="round"/>
<polygon points="121.12,130.50 124.49,128.38 208.98,36.54 205.61,38.66" fill="#dabb9a" fill-opacity="0.95" stroke="#dabb9a" stroke-width="0.45" stroke-linejoin="round"/>
<polygon points="124.49,128.38 127.86,125.20 212.35,33.36 208.98,36.54" fill="#dabb9a" fill-opacity="0.95" stroke="#dabb9a" stroke-width="0.45" stroke-linejoin="round"/>
<polygon points="127.86,125.20 131.22,121.45 215.71,29.61 212.35,33.36" fill="#946c42" fill-opacity="0.95" stroke="#946c42" stroke-width="0.45" stroke-linejoin="round"/>
<polygon points="131.22,121.45 134.59,117.70 219.08,25.86 215.71,29.61" fill="#946c42" fill-opacity="0.95" stroke="#946c42" stroke-width="0.45" stroke-linejoin="round"/>
<polygon points="134.59,117.70 137.96,114.52 222.45,22.69 219.08,25.86" fill="#dabb9a" fill-opacity="0.95" stroke="#dabb9a" stroke-width="0.45" stroke-linejoin="round"/>
<polygon points="137.96,114.52 141.33,112.40 225.82,20.56 222.45,22.69" fill="#dabb9a" fill-opacity="0.95" stroke="#dabb9a" stroke-width="0.45" stroke-linejoin="round"/>
<polygon points="141.33,112.40 144.69,111.65 229.18,19.82 225.82,20.56" fill="#dabb9a" fill-opacity="0.95" stroke="#dabb9a" stroke-width="0.45" stroke-linejoin="round"/>
<polygon points="144.69,111.65 148.06,112.40 232.55,20.56 229.18,19.82" fill="#d4af88" fill-opacity="0.95" stroke="#d4af88" stroke-width="0.45" stroke-linejoin="round"/>
<polygon points="161.53,125.20 164.90,128.38 249.39,36.54 246.02,33.36" fill="#bb874e" fill-opacity="0.95" stroke="#bb874e" stroke-width="0.45" stroke-linejoin="round"/>
<polygon points="158.16,121.45 161.53,125.20 246.02,33.36 242.65,29.61" fill="#b2804b" fill-opacity="0.95" stroke="#b2804b" stroke-width="0.45" stroke-linejoin="round"/>
<polygon points="164.90,128.38 168.27,130.50 252.76,38.66 249.39,36.54" fill="#c79763" fill-opacity="0.95" stroke="#c79763" stroke-width="0.45" stroke-linejoin="round"/>
<polygon points="148.06,112.40 151.43,114.52 235.92,22.69 232.55,20.56" fill="#c79763" fill-opacity="0.95" stroke="#c79763" stroke-width="0.45" stroke-linejoin="round"/>
<polygon points="154.80,117.70 158.16,121.45 242.65,29.61 239.29,25.86" fill="#b2804b" fill-opacity="0.95" stroke="#b2804b" stroke-width="0.45" stroke-linejoin="round"/>
<polygon points="151.43,114.52 154.80,117.70 239.29,25.86 235.92,22.69" fill="#bb874e" fill-opacity="0.95" stroke="#bb874e" stroke-width="0.45" stroke-linejoin="round"/>
<polygon points="168.27,130.50 171.63,131.24 256.12,39.41 252.76,38.66" fill="#d4af88" fill-opacity="0.95" stroke="#d4af88" stroke-width="0.45" stroke-linejoin="round"/>
<polygon points="171.63,131.24 175.00,130.50 259.49,38.66 256.12,39.41" fill="#dabb9a" fill-opacity="0.95" stroke="#dabb9a" stroke-width="0.45" stroke-linejoin="round"/>
<polygon points="175.00,130.50 178.37,128.38 262.86,36.54 259.49,38.66" fill="#dabb9a" fill-opacity="0.95" stroke="#dabb9a" stroke-width="0.45" stroke-linejoin="round"/>
<polygon points="178.37,128.38 181.73,125.20 266.22,33.36 262.86,36.54" fill="#dabb9a" fill-opacity="0.95" stroke="#dabb9a" stroke-width="0.45" stroke-linejoin="round"/>
<polygon points="181.73,125.20 185.10,121.45 269.59,29.61 266.22,33.36" fill="#946c42" fill-opacity="0.95" stroke="#946c42" stroke-width="0.45" stroke-linejoin="round"/>
<polygon points="185.10,121.45 188.47,117.70 272.96,25.86 269.59,29.61" fill="#946c42" fill-opacity="0.95" stroke="#946c42" stroke-width="0.45" stroke-linejoin="round"/>
<polygon points="188.47,117.70 191.84,114.52 276.33,22.69 272.96,25.86" fill="#dabb9a" fill-opacity="0.95" stroke="#dabb9a" stroke-width="0.45" stroke-linejoin="round"/>
<polygon points="191.84,114.52 195.20,112.40 279.69,20.56 276.33,22.69" fill="#dabb9a" fill-opacity="0.95" stroke="#dabb9a" stroke-width="0.45" stroke-linejoin="round"/>
<polygon points="195.20,112.40 198.57,111.65 283.06,19.82 279.69,20.56" fill="#dabb9a" fill-opacity="0.95" stroke="#dabb9a" stroke-width="0.45" stroke-linejoin="round"/>
<polygon points="198.57,111.65 201.94,112.40 286.43,20.56 283.06,19.82" fill="#d4af88" fill-opacity="0.95" stroke="#d4af88" stroke-width="0.45" stroke-linejoin="round"/>
<polygon points="215.41,125.20 218.78,128.38 303.27,36.54 299.90,33.36" fill="#bb874e" fill-opacity="0.95" stroke="#bb874e" stroke-width="0.45" stroke-linejoin="round"/>
<polygon points="212.04,121.45 215.41,125.20 299.90,33.36 296.53,29.61" fill="#b2804b" fill-opacity="0.95" stroke="#b2804b" stroke-width="0.45" stroke-linejoin="round"/>
<polygon points="218.78,128.38 222.14,130.50 306.63,38.66 303.27,36.54" fill="#c79763" fill-opacity="0.95" stroke="#c79763" stroke-width="0.45" stroke-linejoin="round"/>
<polygon points="201.94,112.40 205.31,114.52 289.80,22.69 286.43,20.56" fill="#c79763" fill-opacity="0.95" stroke="#c79763" stroke-width="0.45" stroke-linejoin="round"/>
<polygon points="208.67,117.70 212.04,121.45 296.53,29.61 293.16,25.86" fill="#b2804b" fill-opacity="0.95" stroke="#b2804b" stroke-width="0.45" stroke-linejoin="round"/>
<polygon points="205.31,114.52 208.67,117.70 293.16,25.86 289.80,22.69" fill="#bb874e" fill-opacity="0.95" stroke="#bb874e" stroke-width="0.45" stroke-linejoin="round"/>
<polygon points="222.14,130.50 225.51,131.24 310.00,39.41 306.63,38.66" fill="#d4af88" fill-opacity="0.95" stroke="#d4af88" stroke-width="0.45" stroke-linejoin="round"/>
</svg>